<svg width="24" height="24" viewBox="0 0 24 24" fill="none" xmlns="http://www.w3.org/2000/svg">
<path d="M21.8861 5.536C21.8012 5.37444 21.6738 5.23914 21.5177 5.14468C21.3615 5.05022 21.1826 5.00019 21.0001 5H3.00006C2.8179 5.00075 2.6394 5.05115 2.48374 5.14576C2.32808 5.24038 2.20116 5.37564 2.11663 5.53699C2.03209 5.69835 1.99314 5.8797 2.00397 6.06153C2.01479 6.24337 2.07498 6.41881 2.17806 6.569L11.1781 19.569C11.2698 19.7022 11.3926 19.8112 11.5357 19.8864C11.6789 19.9617 11.8383 20.001 12.0001 20.001C12.1618 20.001 12.3212 19.9617 12.4644 19.8864C12.6076 19.8112 12.7303 19.7022 12.8221 19.569L21.8221 6.569C21.9261 6.41912 21.9871 6.24357 21.9984 6.06144C22.0097 5.87932 21.9708 5.69758 21.8861 5.536ZM12.0001 17.243L4.90806 7H19.0921L12.0001 17.243Z" fill="#F24E1E"/>
</svg>
